<svg xmlns="http://www.w3.org/2000/svg" width="880" height="260" viewBox="0 0 880 260" font-family="-apple-system, 'Segoe UI', Roboto, Helvetica, Arial, sans-serif">
  <defs>
    <linearGradient id="acc" x1="0" y1="0" x2="1" y2="1">
      <stop offset="0" stop-color="#667eea"/><stop offset="1" stop-color="#764ba2"/>
    </linearGradient>
  </defs>
  <rect width="880" height="260" fill="#f9fafb"/>
  <!-- Code editor panel -->
  <rect x="20" y="20" width="400" height="220" rx="12" fill="#0f172a"/>
  <circle cx="42" cy="40" r="5" fill="#ef4444" opacity="0.7"/>
  <circle cx="58" cy="40" r="5" fill="#f59e0b" opacity="0.7"/>
  <circle cx="74" cy="40" r="5" fill="#22c55e" opacity="0.7"/>
  <text x="210" y="44" font-size="11" fill="#475569" text-anchor="middle" font-family="'Courier New', monospace">page-template.php</text>
  <line x1="20" y1="54" x2="420" y2="54" stroke="#1e293b"/>
  <!-- comment 1 -->
  <text x="48" y="80" font-size="12" fill="#475569" font-family="'Courier New', monospace">&lt;!-- Primary navigation --&gt;</text>
  <!-- [menux] -->
  <text x="48" y="104" font-size="13.5" fill="#e2e8f0" font-family="'Courier New', monospace">[</text>
  <text x="56" y="104" font-size="13.5" fill="#a78bfa" font-family="'Courier New', monospace">menux</text>
  <text x="96" y="104" font-size="13.5" fill="#e2e8f0" font-family="'Courier New', monospace">]</text>
  <!-- comment 2 -->
  <text x="48" y="140" font-size="12" fill="#475569" font-family="'Courier New', monospace">&lt;!-- Footer navigation --&gt;</text>
  <!-- [menux location="footer"] -->
  <text x="48" y="164" font-size="13.5" fill="#e2e8f0" font-family="'Courier New', monospace">[</text>
  <text x="56" y="164" font-size="13.5" fill="#a78bfa" font-family="'Courier New', monospace">menux</text>
  <text x="104" y="164" font-size="13.5" fill="#7dd3fc" font-family="'Courier New', monospace">location</text>
  <text x="168" y="164" font-size="13.5" fill="#e2e8f0" font-family="'Courier New', monospace">=</text>
  <text x="176" y="164" font-size="13.5" fill="#86efac" font-family="'Courier New', monospace">"footer"</text>
  <text x="240" y="164" font-size="13.5" fill="#e2e8f0" font-family="'Courier New', monospace">]</text>
  <!-- PHP line -->
  <text x="48" y="200" font-size="11.5" fill="#64748b" font-family="'Courier New', monospace">&lt;?php echo do_shortcode('[menux]'); ?&gt;</text>
  <text x="48" y="220" font-size="11" fill="#334155" font-family="'Courier New', monospace">// classic theme usage</text>
  <!-- Output panel -->
  <rect x="440" y="20" width="420" height="220" rx="12" fill="#ffffff" stroke="#e5e7eb"/>
  <text x="460" y="46" font-size="11" font-weight="700" fill="#9ca3af" letter-spacing="1">RENDERED OUTPUT</text>
  <line x1="440" y1="56" x2="860" y2="56" stroke="#f0f0f3"/>
  <!-- primary nav -->
  <rect x="456" y="68" width="388" height="44" rx="8" fill="#f9fafb" stroke="#e5e7eb"/>
  <rect x="467" y="78" width="18" height="14" rx="3" fill="url(#acc)"/>
  <text x="492" y="97" font-size="12" font-weight="700" fill="#111827">Acme</text>
  <text x="554" y="95" font-size="12" fill="#374151">Home</text>
  <text x="606" y="95" font-size="12" fill="#374151">About</text>
  <text x="660" y="95" font-size="12" fill="#374151">Blog</text>
  <rect x="716" y="76" width="108" height="26" rx="6" fill="url(#acc)"/>
  <text x="770" y="94" font-size="11.5" font-weight="600" fill="#fff" text-anchor="middle">Get Started</text>
  <text x="460" y="126" font-size="11" fill="#9ca3af" font-style="italic">[menux] &#8594; primary location</text>
  <!-- footer nav -->
  <rect x="456" y="148" width="388" height="44" rx="8" fill="#1e293b"/>
  <text x="476" y="175" font-size="12" fill="#94a3b8">&#169; Acme 2026</text>
  <text x="594" y="175" font-size="12" fill="#94a3b8">Privacy</text>
  <text x="660" y="175" font-size="12" fill="#94a3b8">Terms</text>
  <text x="726" y="175" font-size="12" fill="#94a3b8">Contact</text>
  <text x="460" y="207" font-size="11" fill="#9ca3af" font-style="italic">[menux location=&quot;footer&quot;] &#8594; footer</text>
</svg>