<svg xmlns="http://www.w3.org/2000/svg" width="880" height="372" viewBox="0 0 880 372" font-family="-apple-system, 'Segoe UI', Roboto, Helvetica, Arial, sans-serif">
  <defs>
    <linearGradient id="vibrant" x1="0" y1="0" x2="1" y2="0">
      <stop offset="0" stop-color="#667eea"/><stop offset="1" stop-color="#764ba2"/>
    </linearGradient>
    <linearGradient id="glassbg" x1="0" y1="0" x2="1" y2="1">
      <stop offset="0" stop-color="#f0abfc"/><stop offset="0.5" stop-color="#818cf8"/><stop offset="1" stop-color="#38bdf8"/>
    </linearGradient>
  </defs>
  <rect width="880" height="372" fill="#f9fafb"/>

  <!-- ===== Dark ===== -->
  <text x="20" y="34" font-size="12" font-weight="700" fill="#6b7280" letter-spacing="1">🌙 DARK</text>
  <rect x="20" y="44" width="840" height="56" rx="12" fill="#0f172a"/>
  <circle cx="46" cy="72" r="9" fill="#38bdf8"/>
  <text x="64" y="77" font-size="14" font-weight="700" fill="#e2e8f0">Nebula</text>
  <text x="250" y="77" font-size="13" font-weight="600" fill="#38bdf8">Home</text>
  <text x="320" y="77" font-size="13" fill="#94a3b8">About</text>
  <text x="390" y="77" font-size="13" fill="#94a3b8">Services</text>
  <text x="478" y="77" font-size="13" fill="#94a3b8">Contact</text>
  <rect x="760" y="56" width="80" height="32" rx="16" fill="#38bdf8"/>
  <text x="800" y="76" font-size="12.5" font-weight="600" fill="#0f172a" text-anchor="middle">Sign up</text>

  <!-- ===== Glass ===== -->
  <text x="20" y="138" font-size="12" font-weight="700" fill="#6b7280" letter-spacing="1">🧊 GLASS</text>
  <rect x="20" y="148" width="840" height="56" rx="12" fill="url(#glassbg)"/>
  <rect x="32" y="156" width="816" height="40" rx="9" fill="#ffffff" fill-opacity="0.18" stroke="#ffffff" stroke-opacity="0.45"/>
  <circle cx="58" cy="176" r="9" fill="#ffffff"/>
  <text x="76" y="181" font-size="14" font-weight="700" fill="#ffffff">Frost</text>
  <text x="250" y="181" font-size="13" font-weight="600" fill="#ffffff">Home</text>
  <text x="320" y="181" font-size="13" fill="#f1f5f9">Gallery</text>
  <text x="404" y="181" font-size="13" fill="#f1f5f9">Pricing</text>
  <text x="486" y="181" font-size="13" fill="#f1f5f9">Blog</text>

  <!-- ===== Vibrant ===== -->
  <text x="20" y="242" font-size="12" font-weight="700" fill="#6b7280" letter-spacing="1">🌈 VIBRANT</text>
  <rect x="20" y="252" width="840" height="56" rx="12" fill="url(#vibrant)"/>
  <rect x="38" y="270" width="24" height="20" rx="6" fill="#ffffff"/>
  <text x="72" y="285" font-size="14" font-weight="700" fill="#ffffff">Pulse</text>
  <text x="250" y="285" font-size="13" font-weight="700" fill="#ffffff">Home</text>
  <text x="320" y="285" font-size="13" fill="#ede9fe">Features</text>
  <text x="408" y="285" font-size="13" fill="#ede9fe">Team</text>
  <rect x="752" y="264" width="88" height="32" rx="16" fill="#ffffff"/>
  <text x="796" y="284" font-size="12.5" font-weight="700" fill="#667eea" text-anchor="middle">Join now</text>

  <!-- ===== Minimal ===== -->
  <text x="20" y="346" font-size="12" font-weight="700" fill="#6b7280" letter-spacing="1">⚪ MINIMAL</text>
  <rect x="20" y="324" width="840" height="40" rx="0" fill="#ffffff"/>
  <line x1="20" y1="364" x2="860" y2="364" stroke="#e5e7eb"/>
  <text x="38" y="349" font-size="14" font-weight="600" fill="#111827" letter-spacing="2">STUDIO</text>
  <text x="640" y="349" font-size="12.5" fill="#374151" letter-spacing="0.5">Work</text>
  <text x="700" y="349" font-size="12.5" fill="#374151" letter-spacing="0.5">About</text>
  <text x="772" y="349" font-size="12.5" fill="#111827" letter-spacing="0.5">Contact</text>
</svg>
