<svg xmlns="http://www.w3.org/2000/svg" width="880" height="320" viewBox="0 0 880 320" font-family="-apple-system, 'Segoe UI', Roboto, Helvetica, Arial, sans-serif">
  <rect width="880" height="320" fill="#f9fafb"/>
  <rect x="20" y="20" width="840" height="280" rx="14" fill="#ffffff" stroke="#e5e7eb"/>
  <text x="40" y="52" font-size="11" font-weight="700" letter-spacing="1.2" fill="#9ca3af">VISIBILITY RULES — PER ITEM SETTINGS</text>
  <line x1="40" y1="62" x2="840" y2="62" stroke="#f0f0f3" stroke-width="1.5"/>
  <text x="52" y="84" font-size="12" font-weight="600" fill="#6b7280">Menu Item</text>
  <text x="330" y="84" font-size="12" font-weight="600" fill="#6b7280">Visibility</text>
  <text x="510" y="84" font-size="12" font-weight="600" fill="#6b7280">Device</text>
  <text x="670" y="84" font-size="12" font-weight="600" fill="#6b7280">Schedule</text>
  <line x1="40" y1="93" x2="840" y2="93" stroke="#f0f0f3" stroke-width="1.5"/>
  <!-- Row 1: Home -->
  <circle cx="58" cy="115" r="4.5" fill="#667eea"/>
  <text x="76" y="119" font-size="13.5" fill="#111827">Home</text>
  <rect x="330" y="104" width="76" height="21" rx="10" fill="#f3f4f6"/>
  <text x="368" y="119" font-size="11" fill="#6b7280" text-anchor="middle">Everyone</text>
  <rect x="510" y="104" width="52" height="21" rx="10" fill="#f3f4f6"/>
  <text x="536" y="119" font-size="11" fill="#6b7280" text-anchor="middle">All</text>
  <text x="670" y="119" font-size="14" fill="#d1d5db">&#8212;</text>
  <line x1="40" y1="133" x2="840" y2="133" stroke="#f3f4f6"/>
  <!-- Row 2: Dashboard -->
  <circle cx="58" cy="155" r="4.5" fill="#667eea"/>
  <text x="76" y="159" font-size="13.5" fill="#111827">Dashboard</text>
  <rect x="330" y="144" width="118" height="21" rx="10" fill="#dbeafe"/>
  <text x="389" y="159" font-size="11" fill="#1d4ed8" text-anchor="middle">Any logged-in user</text>
  <rect x="510" y="144" width="52" height="21" rx="10" fill="#f3f4f6"/>
  <text x="536" y="159" font-size="11" fill="#6b7280" text-anchor="middle">All</text>
  <text x="670" y="159" font-size="14" fill="#d1d5db">&#8212;</text>
  <line x1="40" y1="173" x2="840" y2="173" stroke="#f3f4f6"/>
  <!-- Row 3: Register -->
  <circle cx="58" cy="195" r="4.5" fill="#667eea"/>
  <text x="76" y="199" font-size="13.5" fill="#111827">Register</text>
  <rect x="330" y="184" width="102" height="21" rx="10" fill="#fef3c7"/>
  <text x="381" y="199" font-size="11" fill="#92400e" text-anchor="middle">Guests only</text>
  <rect x="510" y="184" width="52" height="21" rx="10" fill="#f3f4f6"/>
  <text x="536" y="199" font-size="11" fill="#6b7280" text-anchor="middle">All</text>
  <text x="670" y="199" font-size="14" fill="#d1d5db">&#8212;</text>
  <line x1="40" y1="213" x2="840" y2="213" stroke="#f3f4f6"/>
  <!-- Row 4: Download App -->
  <circle cx="58" cy="235" r="4.5" fill="#667eea"/>
  <text x="76" y="239" font-size="13.5" fill="#111827">Download App</text>
  <rect x="330" y="224" width="76" height="21" rx="10" fill="#f3f4f6"/>
  <text x="368" y="239" font-size="11" fill="#6b7280" text-anchor="middle">Everyone</text>
  <rect x="510" y="224" width="90" height="21" rx="10" fill="#ede9fe"/>
  <text x="555" y="239" font-size="11" fill="#5b21b6" text-anchor="middle">Mobile only</text>
  <text x="670" y="239" font-size="14" fill="#d1d5db">&#8212;</text>
  <line x1="40" y1="253" x2="840" y2="253" stroke="#f3f4f6"/>
  <!-- Row 5: Live Support -->
  <circle cx="58" cy="275" r="4.5" fill="#667eea"/>
  <text x="76" y="279" font-size="13.5" fill="#111827">Live Support</text>
  <rect x="330" y="264" width="118" height="21" rx="10" fill="#dbeafe"/>
  <text x="389" y="279" font-size="11" fill="#1d4ed8" text-anchor="middle">Any logged-in user</text>
  <rect x="510" y="264" width="94" height="21" rx="10" fill="#fce7f3"/>
  <text x="557" y="279" font-size="11" fill="#9d174d" text-anchor="middle">Desktop only</text>
  <rect x="670" y="264" width="136" height="21" rx="10" fill="#d1fae5"/>
  <text x="738" y="279" font-size="11" fill="#065f46" text-anchor="middle">09:00&#160;&#8211;&#160;18:00 daily</text>
</svg>